<?xml version="1.0" encoding="utf-8"?>
<!-- Generator: Adobe Illustrator 22.0.1, SVG Export Plug-In . SVG Version: 6.00 Build 0)  -->
<svg version="1.1" id="Calque_1" xmlns="http://www.w3.org/2000/svg" xmlns:xlink="http://www.w3.org/1999/xlink" x="0px" y="0px"
	 viewBox="0 0 48 48" style="enable-background:new 0 0 48 48;" xml:space="preserve">
<path d="M41.8,27.9l-0.9-4.3l-0.4-13.4l0-0.2c-0.5-2.5-2.1-4.6-4.2-5.5c-1.3-0.5-2.4-0.5-3.3-0.2C32,2.3,30.2,1,28.2,1
	c-2.4,0.1-4.2,2.2-4.3,5l0,0.1l0.9,9.8l0,0c0,0.1,0,0.1,0,0.2L19.8,5l-0.1-0.1C18.2,2.1,15.2,1,13,2.4c-1.7,1.1-2.6,3.5-2,6l0,0.2
	l0.2,0.4c-0.7,0-1.4,0.2-2,0.6c-2.2,1.3-2.9,4.5-1.7,7.1l0,0.1c2.3,4.4,4.3,8.5,6.1,12.2c0.2,0.4,0.4,0.8,0.5,1.1l-1.5-1.1l-0.1-0.1
	c-2.3-1.2-4.9-0.4-6.1,1.8c-0.8,1.6-0.9,4.4,0.8,6.8c0.5,0.7,1.2,1.3,1.9,1.7L22.1,47l20.3-5.4L41.8,27.9z M22.3,43.6l-11.9-7.3
	l-0.1,0c-0.4-0.2-0.7-0.5-0.9-0.8c-0.5-0.7-1-2-0.5-3c0.5-0.9,1.6-1.2,2.6-0.7l2.5,1.8l0.1,0.1c0.5,0.3,2,1.2,3,0.1
	c1.4-1.4,0.1-4.1-1-6.3c-1.8-3.7-3.8-7.8-6.1-12.2c-0.5-1.1-0.2-2.3,0.7-2.9c1-0.6,2.6,0.9,2.6,0.9c1.7,3.4,3.3,6.9,5,10.3
	c0,0,0.2,0.5,0.6,0.6c0.3,0.1,0.6-0.1,0.6-0.1c0.3-0.2,0.7-0.4,1-0.6c0.1,0,0.2-0.1,0.3-0.3c0.1-0.3,0.1-0.6-0.1-0.9
	c-2.4-4.9-4.7-9.9-7.1-14.8c-0.2-1,0.2-2,0.8-2.4c0.8-0.5,2.1-0.2,2.8,1.1l4.9,11c1.2,3.3,2.4,4.8,3.8,4.6c0,0,0.1,0,0.1,0
	c1.7-0.5,1.7-3.5,1.4-6.1l-0.9-9.6c0.1-1.1,0.8-2,1.8-2c1,0,2,1,2.1,2.3c0.2,4.3,0.3,8.5,0.5,12.8c0,0,0,0.4,0.2,0.7
	c0.2,0.3,0.4,0.3,0.5,0.3c0.5,0,0.9,0,1.4,0c0.1,0,0.3,0,0.5-0.2c0.3-0.2,0.3-0.6,0.3-0.7c-0.2-4-0.3-7.9-0.5-11.9
	c0.5-0.2,1.2-0.3,2,0c1.1,0.4,1.9,1.5,2.2,2.8L38,23.8l1,4.3l0.5,11L22.3,43.6z"/>
</svg>
