<?xml version="1.0" encoding="utf-8"?>
<!-- Generator: Adobe Illustrator 22.0.1, SVG Export Plug-In . SVG Version: 6.00 Build 0)  -->
<svg version="1.1" id="Layer_1" xmlns="http://www.w3.org/2000/svg" xmlns:xlink="http://www.w3.org/1999/xlink" x="0px" y="0px"
	 viewBox="0 0 295.2 295.2" style="enable-background:new 0 0 295.2 295.2;" xml:space="preserve">
<style type="text/css">
	.st0{fill:#E47E3D;}
	.st1{fill:#4B2F48;}
	.st2{fill:#B24C5A;}
</style>
<g>
	<g>
		<path class="st0" d="M261.9,97.6h-81c-18.4,0-33.3-15-33.3-33.3S162.6,31,181,31c1.8,0,3.6,0.1,5.4,0.4c6.6-17.3,23.4-29,42.2-29
			c19,0,36.1,12.1,42.5,29.9c14.1,4,24.1,17.1,24.1,32C295.2,82.7,280.3,97.6,261.9,97.6z"/>
		<path class="st1" d="M288.5,158c-16.7-8.3-35.3-12.7-53.9-12.7h-60l-54-38.1H74.2l38.1,38.1H73.2l-42.9-38.1H2.2l18.9,42.5
			l-6.8,1.1v16l3,2.2c21.9,15.7,47.8,23.9,74.7,23.9h10.7l-34.8,34.8l4.9,3.2c1.5,1,3,2.2,4.3,3.4l1.4,1.4h27.8l60.7-42.9h66.4
			c16.4,0,32.4-3.3,47.5-9.7l7-3c4.5-1.9,7.4-6.3,7.4-11.2C295.2,164.2,292.7,160.1,288.5,158z M97.2,116.7h20.3l40.5,28.6h-32.2
			L97.2,116.7z M16.9,116.7h9.9l32.1,28.6h-6.6c-3.4,0-6.8,0.3-10.2,0.8L30.8,148L16.9,116.7z M284.1,171.4l-7,3
			c-13.9,6-28.6,9-43.7,9h-52.9l8-5.6l-5.5-7.8l-79.7,56.3H82.9l49-49l-6.7-6.7l-12.9,12.9H92.1c-24.6,0-48.1-7.4-68.2-21.5v-3
			l19.9-3.3c2.8-0.5,5.7-0.7,8.6-0.7h182.2c17.2,0,34.3,4.1,49.7,11.7c0.9,0.5,1.5,1.4,1.5,2.4C285.7,170,285.1,170.9,284.1,171.4z"
			/>
		<path class="st2" d="M85.7,292.9H28.6C12.8,292.9,0,280,0,264.3c0-14,10.3-25.8,23.9-28.1c6.7-12,19.5-19.5,33.2-19.5
			c18.1,0,33.6,12.8,37.3,30.3c9,3.5,15.1,12.2,15.1,22.1C109.5,282.2,98.8,292.9,85.7,292.9z"/>
		<rect x="161.9" y="245.2" class="st1" width="95.2" height="9.5"/>
		<rect x="142.9" y="245.2" class="st1" width="9.5" height="9.5"/>
		<rect x="42.9" y="35.7" class="st1" width="76.2" height="9.5"/>
		<rect x="23.8" y="35.7" class="st1" width="9.5" height="9.5"/>
		<rect x="23.8" y="59.5" class="st1" width="71.4" height="9.5"/>
		<rect x="4.8" y="59.5" class="st1" width="9.5" height="9.5"/>
	</g>
</g>
</svg>
