<?xml version="1.0" encoding="utf-8"?>
<!-- Generator: Adobe Illustrator 22.0.1, SVG Export Plug-In . SVG Version: 6.00 Build 0)  -->
<svg version="1.1" id="Calque_1" xmlns="http://www.w3.org/2000/svg" xmlns:xlink="http://www.w3.org/1999/xlink" x="0px" y="0px"
	 viewBox="0 0 470 470" style="enable-background:new 0 0 470 470;" xml:space="preserve">
<style type="text/css">
	.st0{fill:#4B2F48;}
	.st1{fill:#B24C5A;}
</style>
<g>
	<path class="st0" d="M469.4,96.7L431.3,4.6c-1.6-3.8-6-5.6-9.8-4.1L295.1,52.9c-3.8,1.6-5.6,6-4.1,9.8l1,2.4L85.9,150.5
		c-1.8,0.8-3.3,2.2-4.1,4.1c-0.8,1.8-0.8,3.9,0,5.7l1,2.4L4.6,195.1c-3.8,1.6-5.6,6-4.1,9.8l22.7,54.8c0.8,1.8,2.2,3.3,4.1,4.1
		c0.9,0.4,1.9,0.6,2.9,0.6s2-0.2,2.9-0.6l78.2-32.4l1,2.4c1.2,2.9,4,4.6,6.9,4.6c1,0,1.9-0.2,2.9-0.6L307.5,161
		c3.8-1.6,5.6-6,4.1-9.8c-1.6-3.8-6-5.6-9.8-4.1l-178.4,73.9l-24.7-59.6L297.8,79l31.4,75.8c0.8,1.8,2.2,3.3,4.1,4.1
		c0.9,0.4,1.9,0.6,2.9,0.6s2-0.2,2.9-0.6l27.7-11.5c0,0,98.6-40.9,98.6-40.9c1.8-0.8,3.3-2.2,4.1-4.1
		C470.2,100.6,470.2,98.6,469.4,96.7L469.4,96.7z M105.6,217.5L34.2,247l-16.9-40.9l71.3-29.5L105.6,217.5z M340.2,142.1l-31.4-75.8
		c0,0-1-2.4-1-2.4l13.9-5.7l32.4,78.2L340.2,142.1z M367.9,130.6l-32.4-78.2l84.8-35.1l32.4,78.2L367.9,130.6z"/>
	<path class="st1" d="M282.5,320.2h0.1c4.1,0,7.5-3.4,7.5-7.5s-3.4-7.5-7.5-7.5h-4.3l-6.8-24.5c-0.9-3.2-3.9-5.5-7.2-5.5h-21.7
		v-54.8l24.6-10.2c3.8-1.6,5.6-6,4.1-9.8c-1.6-3.8-6-5.6-9.8-4.1l-29.3,12.1c0,0,0,0-0.1,0l-29.2,12.1c-3.8,1.6-5.6,6-4.1,9.8
		c1.2,2.9,4,4.6,6.9,4.6c1,0,1.9-0.2,2.9-0.6l18.9-7.8v48.6h-21.7c-3.4,0-6.3,2.2-7.2,5.5l-6.8,24.5h-4.3c-4.1,0-7.5,3.4-7.5,7.5
		s3.4,7.5,7.5,7.5h0.1l-39,140.3c-1.1,4,1.2,8.1,5.2,9.2c4,1.1,8.1-1.2,9.2-5.2l40.1-144.3h24.4v142.3c0,4.1,3.4,7.5,7.5,7.5
		s7.5-3.4,7.5-7.5V320.2h24.4L307,464.5c0.9,3.3,3.9,5.5,7.2,5.5c0.7,0,1.3-0.1,2-0.3c4-1.1,6.3-5.2,5.2-9.2L282.5,320.2
		L282.5,320.2z M207.3,305.2l4.2-15h47.1l4.2,15H207.3L207.3,305.2z"/>
</g>
</svg>
