<?xml version="1.0" encoding="utf-8"?>
<!-- Generator: Adobe Illustrator 22.0.1, SVG Export Plug-In . SVG Version: 6.00 Build 0)  -->
<svg version="1.1" id="Calque_1" xmlns="http://www.w3.org/2000/svg" xmlns:xlink="http://www.w3.org/1999/xlink" x="0px" y="0px"
	 viewBox="0 0 48 48" style="enable-background:new 0 0 48 48;" xml:space="preserve">
<style type="text/css">
	.st0{fill:#B64953;}
	.st1{fill:none;stroke:#B64953;stroke-width:0.5;}
	.st2{fill:none;stroke:#B64953;stroke-width:0.75;}
	.st3{fill:none;stroke:#B64953;stroke-width:0.75;stroke-linecap:round;}
	.st4{fill:#00BA00;}
</style>
<g>
	<g>
		<path class="st0" d="M40.3,12c0.5,0,0.9,0.4,0.9,0.9v19.5c0,0.5-0.4,0.9-0.9,0.9H12.2c-0.5,0-0.9-0.4-0.9-0.9V12.9
			c0-0.5,0.4-0.9,0.9-0.9H40.3 M40.3,11H12.2c-1.1,0-1.9,0.9-1.9,1.9v19.5c0,1.1,0.9,1.9,1.9,1.9h28.2c1.1,0,1.9-0.9,1.9-1.9V12.9
			C42.3,11.9,41.4,11,40.3,11L40.3,11z"/>
	</g>
	<rect x="10.7" y="14" class="st1" width="31" height="3.6"/>
	<polygon class="st2" points="39,31.2 30.5,31.2 28.4,31.2 28.4,20.6 39,20.6 	"/>
	<path class="st2" d="M32.6,28.5c-0.2,0.5-1.1,0.4-1.8,1.1c-0.4,0.5-0.5,1.1-0.5,1.6c2.3,0,4.5,0,6.8,0c0-0.3,0.1-0.7-0.1-1.1
		c-0.5-1.1-2-0.9-2.2-1.6c-0.2-0.7,1.3-1.2,1.4-2.6c0.1-0.8-0.3-1.8-1-2.3c-1.1-0.9-2.5-0.5-2.6-0.4c-0.3-0.3-0.6-0.5-0.9-0.8
		c0,0.4,0.1,0.8,0.1,1.1c-0.5,0.7-1,1.8-0.7,2.8C31.6,27.4,32.7,27.9,32.6,28.5z"/>
	<line class="st3" x1="13.4" y1="21.4" x2="18.3" y2="21.4"/>
	<line class="st3" x1="15.4" y1="24.4" x2="20.3" y2="24.4"/>
	<line class="st3" x1="22.3" y1="24.4" x2="25.3" y2="24.4"/>
	<line class="st3" x1="23.3" y1="26.4" x2="25.3" y2="26.4"/>
	<line class="st3" x1="19.3" y1="26.4" x2="21.3" y2="26.4"/>
	<line class="st3" x1="14.3" y1="26.4" x2="16.3" y2="26.4"/>
	<line class="st3" x1="23.3" y1="29.4" x2="25.3" y2="29.4"/>
	<line class="st3" x1="19.3" y1="29.4" x2="21.3" y2="29.4"/>
	<line class="st3" x1="20.4" y1="21.4" x2="25.3" y2="21.4"/>
	<path class="st4" d="M5.8,26.2c0-0.1-0.2-1.4,0.5-2.2c0.6-0.7,1.5-0.7,1.8-0.7c3.3-0.1,5.7,6.9,9.9,7.5c2.3,0.3,4.3-1.5,8.2-5
		c2.9-2.7,5.8-5.3,8.4-9.6c1.1-1.9,2.4-4.3,4.2-4.4c0.6,0,1.5,0.2,2.1,0.9c0.6,0.6,0.9,1.5,0.8,2.3c-0.1,1.8-2.1,2.9-5.2,4.8
		c-1.1,0.7-4.1,2.6-6.3,4.4c-3.6,2.8-6.2,5.9-7.1,7.1c-3.4,4.1-3.6,5.7-5.1,5.7c-2.3,0.1-2.3-3.6-6.9-6.7
		C8.6,28.6,6.1,28.1,5.8,26.2z"/>
</g>
</svg>
