<?xml version="1.0" encoding="utf-8"?>
<!-- Generator: Adobe Illustrator 22.0.1, SVG Export Plug-In . SVG Version: 6.00 Build 0)  -->
<svg version="1.1" id="Capa_1" xmlns="http://www.w3.org/2000/svg" xmlns:xlink="http://www.w3.org/1999/xlink" x="0px" y="0px"
	 viewBox="0 0 490 490" style="enable-background:new 0 0 490 490;" xml:space="preserve">
<style type="text/css">
	.st0{fill:#EF7E44;}
	.st1{fill:#B64953;}
</style>
<g>
	<path class="st0" d="M104,222.3c-6.7,0-12.2,5.5-12.2,12.2v112.8c0,6.7,5.5,12.2,12.2,12.2c6.7,0,12.2-5.5,12.2-12.2V234.5
		C116.2,227.8,110.8,222.3,104,222.3z"/>
</g>
<g>
	<path class="st1" d="M462.8,228.5c-3-31.5-5.1-53.4-16.8-81.5c-5.7-13.6-19.2-42-46.9-69.7c-41.1-41.1-95.8-63.8-154-63.8
		S132.1,36.2,91,77.4c-40.5,40.5-63,94.1-63.8,151.2C10.8,239.7,0,258.5,0,279.8v22.3c0,34.1,27.8,61.9,61.9,61.9
		c9.2,0,16.6-7.4,16.6-16.6V234.5c0-9.2-7.4-16.6-16.6-16.6c-1.7,0-3.3,0.1-4.9,0.2c0.7-9.3,2.3-22.6,6.6-38
		c0,0,14.4-50.5,52.6-86.3c65.2-60.9,192.4-60.9,257.6,0c38.3,35.8,52.7,86.3,52.7,86.3c4.3,15.2,6,28.4,6.6,38
		c0,0,9.7,78.6-11.5,144.4c-2.6,8.2-5.4,14.1-7.5,18c-3.1,5.9-9.8,17.3-20.7,27.1c-13.1,11.8-29.8,19.8-50.7,24
		c-4.7-8.4-13.7-14.1-24.1-14.1h-46.3c-15.2,0-27.6,12.4-27.6,27.6v3.5c0,15.3,12.4,27.6,27.6,27.6h46.3c10.8,0,20.1-6.1,24.6-15.1
		c17.6-3.1,33.3-8.4,46.8-15.8c8.2-4.5,15.8-9.8,22.6-15.9c3.3-2.9,16.3-14.9,27.4-35.7c7.3-13.8,10.9-25.9,13.2-35.4
		C469.1,294.8,462.8,228.5,462.8,228.5z"/>
</g>
</svg>
