<?xml version="1.0" encoding="utf-8"?>
<!-- Generator: Adobe Illustrator 22.0.1, SVG Export Plug-In . SVG Version: 6.00 Build 0)  -->
<svg version="1.1" id="Capa_1" xmlns="http://www.w3.org/2000/svg" xmlns:xlink="http://www.w3.org/1999/xlink" x="0px" y="0px"
	 viewBox="0 0 512 512" style="enable-background:new 0 0 512 512;" xml:space="preserve">
<style type="text/css">
	.st0{fill:#493049;}
	.st1{fill:#EF7E44;}
</style>
<g>
	<g>
		<path class="st0" d="M440.2,313.1c-0.3-4.2-3.9-7.3-8.1-7c-4.2,0.3-7.3,3.9-7,8.1c0.3,4.3,0.5,8.7,0.5,13.1
			c0,93.5-76.1,169.6-169.6,169.6S86.4,420.8,86.4,327.3c0-31.7,8.8-62.6,25.5-89.4c0.6-0.9,1-2,1.1-3.1l12.4-105.3l72.3,36.1
			c1.8,0.9,3.8,1,5.7,0.4c17-5.5,34.7-8.4,52.7-8.4c18,0,35.7,2.8,52.7,8.4c1.9,0.6,3.9,0.5,5.7-0.4l72.3-36.1L399,234.8
			c0.1,1.1,0.5,2.2,1.1,3.1c8.5,13.7,15.1,28.6,19.4,44.1c1.1,4,5.3,6.4,9.3,5.3c4-1.1,6.4-5.3,5.3-9.3
			c-4.5-16.4-11.3-32.1-20.2-46.6l-13.4-114.3c-0.6-5.1-6.3-8.2-10.9-5.9l-79.1,39.6c-17.6-5.4-35.9-8.2-54.4-8.2
			s-36.8,2.7-54.4,8.2l-79.1-39.6c-4.6-2.3-10.3,0.8-10.9,5.9L98.2,231.3c-17.6,28.9-26.9,62-26.9,96c0,29.9,7.2,58.2,19.9,83.2
			c0.1,0.5,0.2,0.9,0.4,1.4l36.6,95.3c1.1,2.9,3.9,4.8,7,4.8h24.2c3.3,0,6.2-2.2,7.2-5.3l4.7-15.3c25.4,13.2,54.2,20.6,84.7,20.6
			c30.5,0,59.3-7.4,84.7-20.6l4.7,15.3c1,3.2,3.9,5.3,7.2,5.3h24.2c3.1,0,5.9-1.9,7-4.8l37-96.2c0.1-0.3,0.2-0.7,0.3-1
			c12.5-24.9,19.6-53,19.6-82.7C440.7,322.6,440.5,317.8,440.2,313.1z M153.8,496.9h-13.4l-15.1-39.2c9.8,9.8,20.7,18.6,32.5,26
			L153.8,496.9z M371.6,496.9h-13.4l-4.1-13.2c11.8-7.4,22.7-16.2,32.5-26L371.6,496.9z"/>
	</g>
</g>
<g>
	<g>
		<path class="st1" d="M386.6,206.8l-6.2-52.7c-0.6-5.1-6.3-8.2-10.9-5.9l-43.4,21.7c-5.2,2.6-5.5,10.1-0.6,13.2l49.6,31
			c1.2,0.8,2.6,1.1,4,1.1C383.6,215.2,387.1,211.2,386.6,206.8z M344.9,177.4l21.8-10.9l3.1,26.4L344.9,177.4z"/>
	</g>
</g>
<g>
	<g>
		<path class="st1" d="M185.9,169.9l-43.4-21.7c-4.6-2.3-10.3,0.8-10.9,5.9l-6.2,52.7c-0.7,6.1,6.2,10.6,11.5,7.3l49.6-31
			c2.3-1.4,3.7-4,3.5-6.8C189.9,173.6,188.3,171.1,185.9,169.9z M142.2,192.9l3.1-26.4l21.8,10.9L142.2,192.9z"/>
	</g>
</g>
<g>
	<g>
		<path class="st0" d="M328.5,239.2c-13,0-23.7,10.6-23.7,23.7c0,4.2,3.4,7.5,7.5,7.5s7.5-3.4,7.5-7.5c0-4.7,3.8-8.6,8.6-8.6
			s8.6,3.8,8.6,8.6c0,4.2,3.4,7.5,7.5,7.5c4.2,0,7.5-3.4,7.5-7.5C352.1,249.8,341.5,239.2,328.5,239.2z"/>
	</g>
</g>
<g>
	<g>
		<path class="st0" d="M183.5,239.2c-13,0-23.7,10.6-23.7,23.7c0,4.2,3.4,7.5,7.5,7.5c4.2,0,7.5-3.4,7.5-7.5c0-4.7,3.8-8.6,8.6-8.6
			s8.6,3.8,8.6,8.6c0,4.2,3.4,7.5,7.5,7.5s7.5-3.4,7.5-7.5C207.2,249.8,196.6,239.2,183.5,239.2z"/>
	</g>
</g>
<g>
	<g>
		<path class="st0" d="M256,271.4c-30.8,0-55.9,19.6-55.9,43.8S225.2,359,256,359s55.9-19.6,55.9-43.8S286.8,271.4,256,271.4z
			 M256,343.9c-22.5,0-40.8-12.9-40.8-28.7c0-15.8,18.3-28.7,40.8-28.7c22.5,0,40.8,12.9,40.8,28.7C296.8,331,278.5,343.9,256,343.9
			z"/>
	</g>
</g>
<g>
	<g>
		<path class="st0" d="M228,312.8c-3.2,1.9-4.5,5.9-3.1,9.4c1.2,2.9,4.2,4.8,7.3,4.7c3.1-0.1,5.9-2.2,6.8-5.2
			C241.2,315.1,233.8,309.3,228,312.8z"/>
	</g>
</g>
<g>
	<g>
		<path class="st0" d="M284.9,313.4c-2.5-2.1-6.2-2.3-9-0.4c-3,2-4.1,5.9-2.8,9.2c1.2,2.8,4.1,4.7,7.2,4.7c3.1-0.1,5.9-2.1,6.9-5
			C288.3,318.8,287.4,315.4,284.9,313.4z"/>
	</g>
</g>
<g>
	<g>
		<path class="st0" d="M334.7,357.1c-2.3-3.4-7-4.3-10.5-2c-20.1,13.7-43.7,21-68.2,21c-24.5,0-48.1-7.3-68.2-21
			c-3.4-2.3-8.1-1.5-10.5,2c-2.4,3.4-1.5,8.1,2,10.5c22.7,15.4,49.2,23.6,76.7,23.6c27.5,0,54.1-8.2,76.7-23.6
			C336.2,365.3,337.1,360.6,334.7,357.1z"/>
	</g>
</g>
<g>
	<g>
		<path class="st1" d="M256,0c-38.4,0-69.6,31.2-69.6,69.6s31.2,69.6,69.6,69.6c38.4,0,69.6-31.2,69.6-69.6S294.4,0,256,0z
			 M256,124.1c-30.1,0-54.5-24.5-54.5-54.5s24.5-54.5,54.5-54.5c30.1,0,54.5,24.5,54.5,54.5S286.1,124.1,256,124.1z"/>
	</g>
</g>
<g>
	<g>
		<path class="st1" d="M264.1,62.1h-16.1c-0.3,0-0.5-0.2-0.5-0.5V45.5c0-0.3,0.2-0.5,0.5-0.5h16.1c0.3,0,0.5,0.2,0.5,0.5
			c0,4.2,3.4,7.5,7.5,7.5s7.5-3.4,7.5-7.5c0-8.6-7-15.6-15.6-15.6h-0.5v-0.5c0-4.2-3.4-7.5-7.5-7.5c-4.2,0-7.5,3.4-7.5,7.5v0.5h-0.5
			c-8.6,0-15.6,7-15.6,15.6v16.1c0,8.6,7,15.6,15.6,15.6h16.1c0.3,0,0.5,0.2,0.5,0.5v16.1c0,0.3-0.2,0.5-0.5,0.5h-16.1
			c-0.3,0-0.5-0.2-0.5-0.5c0-4.2-3.4-7.5-7.5-7.5c-4.2,0-7.5,3.4-7.5,7.5c0,8.6,7,15.6,15.6,15.6h0.5v0.5c0,4.2,3.4,7.5,7.5,7.5
			c4.2,0,7.5-3.4,7.5-7.5v-0.5h0.5c8.6,0,15.6-7,15.6-15.6V77.7C279.7,69.1,272.7,62.1,264.1,62.1z"/>
	</g>
</g>
<g>
	<g>
		<path class="st1" d="M489.5,231.2H481v-8.6c0-4.2-3.4-7.5-7.5-7.5s-7.5,3.4-7.5,7.5v8.6h-8.6c-4.2,0-7.5,3.4-7.5,7.5
			c0,4.2,3.4,7.5,7.5,7.5h8.6v8.6c0,4.2,3.4,7.5,7.5,7.5s7.5-3.4,7.5-7.5v-8.6h8.6c4.2,0,7.5-3.4,7.5-7.5S493.7,231.2,489.5,231.2z"
			/>
	</g>
</g>
<g>
	<g>
		<path class="st1" d="M392.9,29.9h-8.6v-8.6c0-4.2-3.4-7.5-7.5-7.5s-7.5,3.4-7.5,7.5v8.6h-8.6c-4.2,0-7.5,3.4-7.5,7.5
			s3.4,7.5,7.5,7.5h8.6v8.6c0,4.2,3.4,7.5,7.5,7.5s7.5-3.4,7.5-7.5V45h8.6c4.2,0,7.5-3.4,7.5-7.5S397.1,29.9,392.9,29.9z"/>
	</g>
</g>
<g>
	<g>
		<path class="st1" d="M54.7,182.9h-8.6v-8.6c0-4.2-3.4-7.5-7.5-7.5s-7.5,3.4-7.5,7.5v8.6h-8.6c-4.2,0-7.5,3.4-7.5,7.5
			c0,4.2,3.4,7.5,7.5,7.5H31v8.6c0,4.2,3.4,7.5,7.5,7.5s7.5-3.4,7.5-7.5V198h8.6c4.2,0,7.5-3.4,7.5-7.5S58.9,182.9,54.7,182.9z"/>
	</g>
</g>
</svg>
